<svg width="68" height="88" viewBox="0 0 68 88" fill="none" xmlns="http://www.w3.org/2000/svg">
<path d="M36.6488 86.472C34.6148 68.679 33.8108 49.959 29.4608 32.561M29.3338 31.794C31.0458 30.226 37.3338 26.11 34.4938 23.182C33.1638 21.812 31.3368 20.932 29.5588 20.304C26.7848 19.324 22.8288 20.246 22.8288 23.768C22.8288 27.732 26.0288 30.448 29.7828 30.448M30.4558 30.897C32.6518 32.877 35.0768 34.67 37.4598 36.405C40.0098 38.262 44.4708 42.464 48.1148 41.988C50.4838 41.679 52.0948 39.236 52.8388 37.153C53.7418 34.623 53.9588 32.042 51.8788 30.099C49.2748 27.666 45.9908 26.733 42.5438 26.236C40.5298 25.945 34.5158 25.968 36.4878 25.463C37.5918 25.18 38.9978 25.225 40.0888 25.126C44.0238 24.773 47.9028 24.179 51.7168 23.132C54.0118 22.496 56.2538 21.684 58.4218 20.702C60.6248 19.712 63.2548 18.674 65.0018 16.939C69.0148 12.952 61.0098 9.194 57.9728 8.676C54.2428 8.04 50.2458 8.681 46.6068 9.536C44.2038 10.101 41.9388 11.032 39.9518 12.502C38.3218 13.708 37.0928 15.322 35.8398 16.889C34.8358 18.143 34.4608 19.629 33.6458 20.977C33.5348 21.161 33.3678 21.42 33.4218 20.977C33.6158 19.372 34.1688 17.787 34.4818 16.203C35.1438 12.843 36.3878 8.327 34.3938 5.199C33.5138 3.819 31.7708 1.855 29.9318 2.009C26.9668 2.256 25.1248 4.263 24.0248 6.881C22.3528 10.863 23.1728 15.763 24.2618 19.755C24.4158 20.319 24.6898 21.185 23.8758 20.827C20.7718 19.461 17.2578 19.374 13.9178 19.144C10.5128 18.911 7.3318 19.73 4.6828 22.024C3.0108 23.471 0.594803 27.184 3.0378 29.027C5.1028 30.586 8.8878 30.982 11.3378 31.196C13.7478 31.406 17.7278 32.061 19.9878 30.747L20.0568 30.706M20.0568 30.706C20.9498 30.154 21.0848 29.424 21.5828 28.604C21.6498 28.493 21.8818 28.294 21.8818 28.154C21.8818 27.987 21.6558 28.405 21.5578 28.541C21.1038 29.168 20.4578 30.11 20.0568 30.706ZM20.0568 30.706L20.0368 30.735C17.4038 34.653 14.6038 39.059 13.6568 43.758C13.3328 45.363 12.7568 48.905 14.9148 49.566C17.7548 50.435 21.3488 48.166 23.5768 46.749C25.7868 45.342 27.8558 42.959 28.6988 40.43C29.5518 37.87 29.7828 34.478 29.7828 31.794" stroke="#1D00AB" stroke-width="3" stroke-miterlimit="10" stroke-linecap="round"/>
</svg>
