<svg width="148" height="264" viewBox="0 0 148 264" fill="none" xmlns="http://www.w3.org/2000/svg">
<path d="M45.4402 35.689C42.5482 51.539 42.5172 68.616 52.0592 82.555C71.2772 110.624 103.69 63.512 105.889 44.962C108.533 22.665 83.5032 13.997 65.8052 20.798C56.6562 24.312 49.3452 32.712 45.4402 41.444M55.4832 46.771L56.6202 47.336M82.2122 44.793H82.7802M66.8572 52.422C66.8332 53.102 65.8812 59.386 67.2982 59.769C68.6972 60.145 70.7002 59 71.9752 58.638M59.7492 69.658C63.2292 72.38 65.9752 74.372 69.8582 71.133C71.4512 69.805 72.7282 68.19 73.9642 66.549M47.4892 38.768C45.0402 39.801 42.7282 37.729 41.9642 35.452C41.1702 33.087 41.5632 30.418 42.0842 28.06C43.2672 22.714 45.4062 17.283 48.3592 12.654C53.2072 5.056 62.0892 2.6 70.7102 2.223C80.9922 1.773 90.5332 5.512 99.5092 10.151C107.005 14.024 113.557 18.381 117.742 25.832C120.383 30.536 121.537 36.849 121.253 42.222C120.961 47.706 114.731 49.752 110.181 50.995C108.997 51.318 108.056 51.018 107.244 51.824M67.1222 92.578C67.3172 99.865 68.0242 107.118 68.4882 114.392C69.2882 126.945 69.5742 139.488 69.6542 152.064C69.7632 169.175 71.1632 185.984 73.2722 202.959M68.2072 125.298C54.6442 111.778 39.7582 99.937 24.8882 87.884C17.3852 81.805 9.90019 75.822 1.99219 70.287M70.3772 126.016C71.0482 125.589 71.5632 125.265 71.9842 124.998M71.9842 124.998L72.3042 124.794M71.9842 124.998C65.1352 131.007 67.1332 129.285 72.3042 124.794M71.9842 124.998C76.5932 120.954 85.2112 113.408 99.5652 100.848C111.428 90.469 123.933 80.809 135.728 70.367C139.03 67.444 142.311 64.821 146 62.377M72.3042 124.794C73.9892 123.715 74.0282 123.58 77.8562 120.224C120.361 82.955 85.6952 113.163 72.3042 124.794ZM72.9112 203.318C59.1842 215.984 44.8382 228 30.5362 240.013C25.2402 244.455 19.9272 248.876 14.5952 253.276C12.4262 255.064 13.3172 254.591 12.1222 255.093C10.6452 255.714 9.44519 257.645 8.28319 258.709C7.12319 259.771 5.79319 260.64 4.52519 261.565M73.6342 200.442C79.7232 209.346 85.7312 218.555 92.8922 226.648C101.703 236.608 111.851 245.461 121.034 255.093" stroke="#1D00AB" stroke-width="3" stroke-miterlimit="10" stroke-linecap="round"/>
</svg>
