<svg width="214" height="235" viewBox="0 0 214 235" fill="none" xmlns="http://www.w3.org/2000/svg">
<path d="M65.3541 229.878C65.0987 230.338 64.656 230.745 64.0762 231.104M64.0762 231.104C60.7358 233.175 52.8436 233.661 50.0027 233.433C47.0333 233.196 40.9579 232.234 39.9678 228.981C39.6526 227.945 39.2041 225.776 39.9678 224.794C44.339 219.174 51.411 218.514 57.911 218.514C59.3538 218.514 61.0356 218.341 62.7409 218.235M64.0762 231.104C63.9021 231.095 63.7288 231.083 63.5597 231.074C59.8592 230.889 62.8936 229.878 64.4569 229.878C65.5381 229.878 66.936 229.294 68.2558 228.386M64.0762 231.104C65.0017 231.156 65.9505 231.144 66.4174 230.21C66.9822 229.081 67.6761 229.058 68.2558 228.386M62.7409 218.235C65.4156 218.069 68.1482 218.068 70.1075 219.155M62.7409 218.235C64.6742 218.733 67.7311 219.112 69.5408 219.112C69.7508 219.112 69.939 219.127 70.1075 219.155M62.7409 218.235C62.7146 218.229 62.6885 218.222 62.6626 218.215C62.6075 218.2 62.5483 218.187 62.4855 218.174M70.1075 219.155C70.5589 219.406 70.9693 219.714 71.3285 220.092M70.1075 219.155C70.7927 219.27 71.1525 219.61 71.3285 220.092M71.3285 220.092C71.5504 220.325 71.7528 220.585 71.9332 220.873C73.3995 223.219 70.996 226.5 68.2558 228.386M71.3285 220.092C71.6209 220.892 71.4064 222.086 71.3351 223.299C71.1925 225.724 69.5846 226.312 68.4775 228.084C68.4059 228.198 68.3318 228.298 68.2558 228.386M62.4855 218.174C61.7061 218.013 60.372 217.956 59.3943 217.639M62.4855 218.174C63.8571 218.104 65.3016 217.916 65.9522 217.916C67.4867 217.916 70.737 218.689 70.737 216.72C70.737 215.049 71.1704 210.696 72.5313 209.675C73.5916 208.88 73.1294 206.717 73.1294 205.489C73.1294 203.384 73.7914 201.71 74.3256 199.707C76.5487 191.37 78.0395 182.925 81.2371 174.786C82.1659 172.422 85.238 165.283 88.3811 165.283H96.4555C101.088 165.283 105.981 166.184 110.544 166.944C113.787 167.485 116.193 168.371 116.193 171.995C116.193 179.743 116.818 187.81 115.595 195.454C115.211 197.851 114.929 200.124 114.133 202.398C113.332 204.688 114.149 207.212 113.501 209.542L113.496 209.564C112.909 211.674 111.009 218.514 114.1 218.514H124.566C126.72 218.514 121.913 219.06 120.978 219.112C118.602 219.244 109.016 219.823 109.016 223.299C109.016 225.02 109.873 229.841 111.408 230.609C113.91 231.86 117.17 230.699 119.782 232.005C123.449 233.838 128.921 232.869 132.973 232.869C136.431 232.869 139.738 232.361 142.51 230.144C143.76 229.143 144.816 229.866 144.902 227.618C144.941 226.616 145.013 225.492 144.902 224.495C144.71 222.763 140.921 218.161 139.486 217.085C135.898 214.395 123.101 221.42 126.062 213.131C128.751 205.602 131.612 197.241 133.073 189.207C134.398 181.918 136.161 174.732 137.26 167.343C138.264 160.588 138.323 154.071 138.323 147.207C138.323 146.191 138.501 143.806 138.232 142.049M62.4855 218.174C61.1709 218.241 59.9234 218.2 59.5059 217.783C59.4658 217.743 59.4286 217.694 59.3943 217.639M59.3943 217.639C58.6942 217.411 58.1768 217.05 58.1768 216.421V212.533C58.1768 209.553 58.3154 206.145 59.074 203.262C59.1357 203.028 59.1936 202.792 59.2481 202.557M59.3943 217.639C58.5799 216.31 59.373 210.707 59.373 209.277C59.373 207.069 59.2556 204.804 59.2481 202.557M59.2481 202.557C59.8274 200.051 60.0157 197.494 60.2533 194.93M59.2481 202.557C59.2436 201.196 59.2795 199.842 59.4062 198.511C59.5239 197.276 59.9509 196.116 60.2533 194.93M60.2533 194.93C60.3405 193.989 60.4344 193.048 60.5567 192.107M60.2533 194.93C60.4334 194.224 60.5692 193.509 60.5692 192.762C60.5692 192.549 60.5641 192.33 60.5567 192.107M60.5567 192.107C60.6436 191.438 60.7449 190.77 60.8683 190.104C61.2294 188.154 61.6758 185.928 61.7654 183.957C61.7676 183.909 61.7703 183.861 61.7735 183.813M60.5567 192.107C60.5085 190.658 60.362 189.028 60.8683 187.712C61.3937 186.346 60.8825 185.06 61.7654 183.824C61.7681 183.82 61.7708 183.816 61.7735 183.813M61.7735 183.813C61.9406 181.309 63.4533 179.227 63.5597 176.78C63.8003 171.246 65.9522 166.065 65.9522 160.631C65.9522 157.211 66.4582 153.156 67.8794 149.998C68.8413 147.86 68.3795 146.023 70.006 144.216C70.0584 144.158 70.104 144.097 70.1442 144.033M61.7735 183.813C62.4708 182.832 63.3093 181.098 63.5265 179.903C64.1193 176.643 65.9522 173.807 65.9522 170.4C65.9522 166.961 66.6053 162.711 67.6136 159.435C68.1922 157.554 68.2766 154.162 68.3446 152.257C68.4526 149.234 70.1389 147.228 70.1389 144.349C70.1389 144.244 70.1407 144.138 70.1442 144.033M70.1442 144.033C70.6019 143.308 70.3699 142.271 71.6342 141.99C72.6882 141.756 73.8534 142.076 74.9237 141.923C77.3637 141.575 79.702 140.469 82.1674 140.196C87.0118 139.657 92.174 140.162 97.0536 140.162H134.601C134.93 140.162 135.736 140.058 136.438 140.054M70.1442 144.033C70.2572 140.633 72.148 137.327 72.8304 133.915C73.8796 128.669 74.2761 123.043 74.9237 117.7C76.0252 108.613 75.8659 99.3345 76.1199 90.1873C76.2051 87.1206 76.3901 83.1343 77.7813 80.3518C79.3912 77.1321 73.4648 86.1324 71.0028 88.7585C66.6694 93.3809 61.4204 96.8457 57.0138 101.252C55.0393 103.227 53.1318 105.274 50.9663 107.034C48.2034 109.279 46.4719 112.4 43.5565 114.411C39.0789 117.499 34.9158 121.591 31.2289 125.509C29.7404 127.09 28.1873 129.141 26.4772 130.46C24.9464 131.641 22.9518 131.907 22.8886 134.181C22.8364 136.061 24.676 141.019 22.2905 142.422C19.7814 143.898 11.7019 143.844 9.13221 142.688C5.11332 140.879 4.9221 140.36 3.43577 136.326L3.41699 136.275C2.60232 134.063 0.811135 130.098 3.18439 128.466C7.01296 125.834 8.90012 126.518 12.9867 125.775C16.0827 125.212 17.4863 121.54 18.4361 118.863C21.8727 109.178 27.4152 96.4828 35.914 90.1873C37.5953 88.9419 38.8489 87.1056 40.4995 85.8677C42.8649 84.0936 45.6073 83.0363 48.009 81.4151C52.2358 78.562 56.8024 75.6132 61.5661 73.7727C64.3147 72.7107 66.9183 71.7611 69.5408 70.4499C72.192 69.1243 75.3426 66.6685 78.2133 66.0305C79.6899 65.7024 82.2655 65.2414 83.5963 64.502C86.5689 62.8506 90.3975 63.6077 93.6976 62.7077C96.5425 61.9318 99.8037 61.4522 102.437 60.2821C104.307 59.4509 104.231 59.9296 104.231 57.6238C104.231 56.0179 104.785 54.6543 104.829 53.1713C104.947 49.1697 102.088 50.4466 98.715 50.4466C94.1352 50.4466 90.3428 43.8975 88.6801 40.2788C86.6788 35.9229 86.2877 30.0179 86.2877 25.293C86.2877 21.642 86.8318 18.4085 87.8162 14.8926C88.2646 13.2912 89.8764 11.7146 89.8764 10.0745C89.8764 8.85959 94.4435 6.18683 95.5916 6.18683C99.4074 6.18683 103.133 3.21446 106.922 2.63143C111.175 1.97714 115.302 2.0001 119.649 2.0001C124.703 2.0001 127.559 4.47414 131.611 7.71532C137.825 12.6871 140.117 19.6938 140.117 27.4195C140.117 30.7586 139.658 34.5327 136.661 36.6902C134.809 38.024 128.795 38.7563 128.155 41.475C128.114 41.6487 125.911 43.0888 125.497 43.4022C124.209 44.3776 122.435 44.8384 120.978 45.5288C119.793 46.0898 116.882 47.6198 116.791 49.2504C116.665 51.5117 116.205 55.1226 116.824 57.2916C117.016 57.9636 127.12 58.0673 128.753 58.521C131.727 59.3472 135.263 58.82 138.323 58.82C141.502 58.82 144.279 60.0163 147.494 60.0163C153.188 60.0163 158.454 63.1679 163.177 66.0305C170.674 70.5739 175.952 77.0732 181.519 83.6082C185.66 88.4696 189.356 93.5557 192.019 99.3583C194.025 103.728 197.274 106.488 197.535 111.453C197.598 112.656 204.421 112.051 205.311 112.051C208.584 112.051 211.89 115.566 211.89 118.93C211.89 122.625 208.245 124.484 205.643 126.14C202.848 127.919 198.12 129.457 194.844 129.961C191.941 130.408 188.823 131.024 185.806 130.559C182.26 130.014 175.405 123.128 175.405 119.362C175.405 117.608 181.586 116.171 182.915 115.507C186.476 113.727 182.35 106.913 180.921 105.14C175.453 98.3523 168.35 92.8151 160.984 88.2601C155.438 84.83 149.742 81.2897 144.37 77.6271L144.199 77.5105C141.838 75.8994 141.351 75.567 138.323 75.567H130.88C128.188 75.567 128.155 75.8258 128.155 78.5243V86.6319C128.155 89.315 128.745 91.926 129.65 94.4405C130.693 97.3368 130.582 100.385 131.411 103.346C133.559 111.017 134.734 119.845 134.734 127.735C134.734 132.041 134.265 136.665 136.438 140.054M136.438 140.054C136.957 140.052 137.42 140.104 137.592 140.295C137.92 140.66 138.117 141.297 138.232 142.049M136.438 140.054C136.904 140.781 137.492 141.451 138.232 142.049M138.232 142.049C138.449 142.224 138.678 142.393 138.921 142.555M97.4482 24.3142C97.4482 24.4891 97.6958 25.0783 97.8392 24.6641C97.958 24.3211 97.7261 23.9339 97.7261 24.3142M124.859 23.666C124.905 24.0353 125.319 22.9886 124.859 23.2956M108.653 28.9444C109.596 29.4155 107.954 31.9753 109.08 31.9026C110.877 31.7867 112.484 32.0629 114.209 32.5559M102.171 38.39C102.847 38.5588 103.385 39.1177 103.987 39.4395C105.371 40.1787 107.243 39.875 108.705 39.5732C110.637 39.1743 112.517 38.6282 114.467 38.2974C115.66 38.0949 116.835 37.8494 118.006 37.5565M86.521 20.3323H86.3924C86.9531 20.3323 87.477 20.2671 88.0233 20.1265C91.8842 19.1324 95.6994 18.2912 99.6913 17.976C102.062 17.7889 104.444 17.7349 106.811 17.513C108.814 17.3253 110.8 16.9832 112.795 16.7259C114.935 16.4498 117.117 16.5081 119.272 16.5355C120.356 16.5493 121.371 16.802 122.431 16.9985C123.622 17.2196 124.832 17.3667 126.032 17.5336C128.151 17.8283 130.161 18.4061 132.257 18.7992C133.821 19.0924 135.429 19.3327 136.897 19.9619M21.6973 114.181C23.7542 114.593 25.93 116.977 27.5357 118.192C28.1453 118.653 28.9997 119.196 29.2872 119.944C29.5573 120.646 29.9687 121.983 30.5564 122.406C30.9052 122.657 31.3462 123.199 31.521 123.548M188.244 93.62C186.976 93.6904 185.865 94.7355 184.906 95.4604C183.227 96.7292 181.277 97.9187 179.816 99.4457C178.803 100.505 177.919 101.933 177.278 103.215M97.7742 62.3211C101.734 64.8998 107.505 65.5668 112.066 64.3772C114.489 63.7451 115.796 62.0031 117.599 60.468C118.237 59.9256 119.336 59.4064 119.706 58.6657M105.542 72.6018C106.482 73.6598 106.454 72.3661 106.227 71.4595M105.313 83.5678C105.313 82.8115 105.577 82.3715 105.948 81.7401C106.018 81.6215 105.938 82.2574 105.77 82.4255M105.999 91.3354C105.583 91.3354 105.242 91.4354 104.856 91.5639M105.085 103.215V104.586M104.856 112.582V114.181M104.4 125.147H105.085M103.257 134.057C101.504 134.934 100.243 136.651 98.6246 137.776C97.8297 138.328 96.9442 138.735 96.175 139.312M104.171 135.2C105.984 136.753 108.518 138.355 110.873 138.842C112.199 139.117 112.835 139.797 113.995 140.53C114.94 141.128 115.249 141.462 116.279 141.609C117.129 141.731 117.646 142.51 118.564 142.51M89.7437 17.7063C92.3773 17.3472 94.9909 16.8606 97.6195 16.4671C102.518 15.7339 107.437 15.2182 112.359 14.6841C114.876 14.411 117.498 14.3398 120.002 13.8983M120.002 13.8983C120.149 13.8724 120.295 13.8452 120.441 13.8166C120.459 13.8131 120.476 13.8098 120.492 13.8066M120.002 13.8983C120.251 13.92 120.479 13.9416 120.634 13.9612C120.944 14.0003 121.254 14.041 121.563 14.0832M120.002 13.8983C119.857 13.8857 119.704 13.873 119.553 13.8606M120.492 13.8066C120.804 13.743 120.627 13.7493 120.22 13.7893M120.492 13.8066C120.401 13.8007 120.311 13.7949 120.22 13.7893M120.492 13.8066C120.84 13.8294 121.186 13.8536 121.529 13.8717C121.909 13.8918 122.289 13.9114 122.669 13.9305M120.22 13.7893C120.037 13.8073 119.806 13.8322 119.553 13.8606M120.22 13.7893C119.68 13.7558 119.138 13.7304 118.603 13.7409C118.17 13.7494 118.837 13.8017 119.553 13.8606M119.553 13.8606C118.769 13.9487 117.766 14.0704 117.254 14.1264C113.752 14.5097 110.238 14.8463 106.721 15.0489C103.948 15.2087 101.176 15.1713 98.4031 15.2138M98.4031 15.2138C98.0791 15.2187 97.7552 15.2248 97.4312 15.2324M98.4031 15.2138C98.7321 15.1534 99.0606 15.0882 99.3885 15.0183M98.4031 15.2138C96.968 15.477 95.5219 15.6464 94.0575 15.6952M97.4312 15.2324C97.1543 15.2389 96.8775 15.2465 96.6006 15.2555C96.5218 15.258 95.5413 15.3581 95.0336 15.4178M97.4312 15.2324C96.6136 15.3153 95.7953 15.3889 94.9759 15.4482C94.9526 15.4499 94.9312 15.4514 94.9116 15.4528M97.4312 15.2324C98.0841 15.1662 98.7365 15.094 99.3885 15.0183M95.0336 15.4178C94.7338 15.453 94.5988 15.4741 94.9116 15.4528M95.0336 15.4178C94.9929 15.4295 94.9522 15.4411 94.9116 15.4528M95.0336 15.4178C96.172 15.091 97.3077 14.7568 98.4457 14.4431C99.3677 14.1889 100.296 13.9554 101.236 13.8018M94.9116 15.4528C94.6271 15.5343 94.3424 15.6152 94.0575 15.6952M99.3885 15.0183C101.196 14.8085 103.001 14.5718 104.807 14.3605C105.494 14.2801 106.181 14.202 106.869 14.1268M99.3885 15.0183C99.8853 14.9125 100.381 14.7961 100.876 14.6703C101.688 14.4639 102.486 14.2232 103.274 13.9426M106.869 14.1268C108.717 13.9248 110.568 13.7441 112.421 13.5978M106.869 14.1268C111.209 14.2845 115.54 14.1714 119.801 13.3967C120.42 13.2841 120.31 13.2482 119.856 13.2452C118.801 13.2383 117.743 13.2792 116.689 13.3278C116.511 13.3361 116.332 13.3448 116.153 13.3538M106.869 14.1268C105.671 14.0833 104.472 14.0192 103.274 13.9426M112.421 13.5978C113.664 13.4997 114.908 13.4171 116.153 13.3538M112.421 13.5978C112.318 13.6194 112.214 13.6418 112.111 13.6652C111.732 13.7512 111.134 13.6273 110.989 13.9887C110.872 14.2807 111.618 13.9865 111.932 13.9681C113.343 13.8851 114.767 13.6835 116.153 13.3538M112.421 13.5978C113.971 13.2748 115.567 13.1465 117.164 13.0885M116.153 13.3538C116.492 13.2731 116.829 13.1847 117.164 13.0885M103.274 13.9426C102.594 13.8992 101.915 13.8517 101.236 13.8018M103.274 13.9426C103.358 13.9125 103.442 13.882 103.526 13.851C103.619 13.8168 104.305 13.6436 103.781 13.6239C102.922 13.5914 102.075 13.6648 101.236 13.8018M101.236 13.8018C99.1333 13.6472 97.0348 13.4687 94.9479 13.3108M94.9479 13.3108C94.6256 13.2864 94.3036 13.2625 93.9819 13.2393M94.9479 13.3108C95.0793 13.1997 95.1029 13.1213 94.9071 13.1213H94.1393M94.9479 13.3108C94.6406 13.5705 93.7438 14.009 93.6816 14.0438C93.0748 14.3834 92.4537 14.7023 91.8225 15.0029M93.9819 13.2393C93.4035 13.1975 92.8261 13.1579 92.2498 13.1213M93.9819 13.2393C93.4477 13.6416 92.9219 14.0561 92.4149 14.4982C92.3901 14.5198 92.0766 14.7554 91.8225 15.0029M93.9819 13.2393C94.0343 13.1998 94.0867 13.1605 94.1393 13.1213M92.2498 13.1213C92.0723 13.11 91.8948 13.099 91.7174 13.0884M92.2498 13.1213H88.1879C89.3665 13.1213 90.5428 13.1109 91.7174 13.0884M92.2498 13.1213H94.1393M91.7174 13.0884C91.7089 13.0879 91.7005 13.0874 91.692 13.0869C90.9243 13.0409 87.9753 13.0584 90.5561 12.7358C92.1563 12.5357 93.7618 12.3685 95.3696 12.2199M91.7174 13.0884C92.5711 13.0721 93.4238 13.0493 94.2758 13.0196M95.3696 12.2199C97.9651 11.98 100.567 11.7885 103.161 11.5861C103.313 11.5742 103.465 11.5622 103.617 11.55M95.3696 12.2199C95.0042 12.4855 94.6385 12.7505 94.2758 13.0196M95.3696 12.2199C95.9431 11.803 96.5159 11.3845 97.0757 10.9458C97.1754 10.8676 97.2614 10.7967 97.3341 10.7325M103.617 11.55C103.737 11.5404 103.857 11.5307 103.977 11.5209M103.617 11.55C103.362 11.6311 103.282 11.6684 103.547 11.6136C103.691 11.5838 103.834 11.5529 103.977 11.5209M103.617 11.55C104.133 11.3856 105.367 11.0409 105.901 10.9183C106.12 10.8682 106.34 10.8254 106.562 10.7891M103.977 11.5209C106.763 11.2937 109.582 11.0284 112.373 11.0284C114.116 11.0284 108.95 11.7064 107.223 11.9441C102.908 12.5377 98.6014 12.8688 94.2758 13.0196M103.977 11.5209C104.857 11.3232 105.716 11.0812 106.562 10.7891M94.2758 13.0196C94.2302 13.0535 94.1847 13.0873 94.1393 13.1213M91.8225 15.0029C90.3855 15.6871 88.8961 16.2761 87.403 16.7976C85.7753 17.3661 87.236 17.2046 88.0777 17.073C90.1004 16.7567 92.0851 16.2491 94.0575 15.6952M91.8225 15.0029C91.6184 15.2017 91.4527 15.408 91.5061 15.5171C91.6557 15.8223 93.0645 15.7098 93.186 15.7098C93.4772 15.7098 93.7677 15.7049 94.0575 15.6952M97.3341 10.7325C97.8753 10.2542 97.6818 10.1462 96.9987 10.1555M97.3341 10.7325C98.6428 10.6225 99.9513 10.4984 101.255 10.34C104.3 9.96981 107.349 9.43695 110.329 8.66014M97.3341 10.7325C97.0253 10.7584 96.7166 10.7835 96.4079 10.8081C96.0509 10.8366 95.0637 11.0706 95.3339 10.8357C95.6136 10.5924 96.2857 10.4214 96.5937 10.3056C96.7284 10.2549 96.8634 10.2048 96.9987 10.1555M96.9987 10.1555C96.8896 10.157 96.7681 10.1614 96.635 10.1679C94.6985 10.2616 92.6719 10.7537 90.7351 10.6154C90.1451 10.5732 90.7771 10.2771 90.9554 10.1885C91.5872 9.87454 92.2498 9.6122 92.9179 9.37123M96.9987 10.1555C97.8742 9.83614 98.7637 9.54748 99.6711 9.33485C102.392 8.69716 105.194 8.66879 107.974 8.66018C108.759 8.65775 109.544 8.65981 110.329 8.66014M92.9179 9.37123C93.3031 9.23231 93.6901 9.10049 94.074 8.96998C96.1475 8.26522 98.2804 7.5882 100.456 7.28329C100.851 7.22787 102.003 7.0756 101.654 7.26953C101.081 7.58777 100.27 7.75723 99.6573 7.9442C97.454 8.61604 95.2005 9.08058 92.9179 9.37123ZM92.9179 9.37123C92.6314 9.40772 92.3443 9.44147 92.0569 9.47254C91.7822 9.50224 91.5069 9.53152 91.2308 9.54139C90.695 9.56052 90.8784 9.48308 91.2996 9.32109C92.9841 8.67321 94.7891 8.23387 96.5456 7.84782C99.4413 7.21136 102.387 6.68081 105.347 6.30903M105.347 6.30903C107.142 6.08353 108.942 5.91644 110.74 5.81955M105.347 6.30903C107.299 6.60584 109.255 6.88133 111.21 7.15868M105.347 6.30903C104.411 6.1668 103.476 6.01968 102.542 5.8651C99.5601 5.37161 96.5543 4.86727 93.599 4.22661C93.3743 4.17789 93.0872 4.08892 93.5439 4.08892C94.5982 4.08892 95.6641 4.21163 96.7108 4.30922C100.849 4.69506 104.987 5.03317 109.135 5.2557M110.74 5.81955C110.846 5.81384 110.952 5.80836 111.058 5.80314C112.38 5.73802 113.73 5.69694 115.061 5.76244M110.74 5.81955C111.626 6.11718 112.52 6.39561 113.419 6.65829M110.74 5.81955C110.548 5.75527 110.357 5.69009 110.167 5.62399M115.061 5.76244C115.306 5.77451 115.551 5.7902 115.794 5.81002C115.798 5.81028 116.516 5.82258 116.358 6.02662M115.061 5.76244C115.493 5.85353 115.925 5.94182 116.358 6.02662M115.061 5.76244C114.666 5.67928 114.273 5.59379 113.879 5.50649M116.358 6.02662C116.346 6.0427 116.328 6.05997 116.304 6.07852C116.227 6.13798 116.146 6.19467 116.061 6.24879M116.358 6.02662C117.525 6.25499 118.695 6.45807 119.87 6.62239C120.806 6.75331 122.37 7.18193 123.326 6.86334C123.447 6.82304 123.081 6.78746 122.954 6.77385C122.179 6.69059 121.418 6.56072 120.655 6.40209C118.001 5.85065 115.376 5.16358 112.724 4.60525C112.343 4.52513 111.963 4.45772 111.582 4.40203M116.061 6.24879C115.593 6.5487 115.023 6.76941 114.421 6.94431M116.061 6.24879C115.175 6.34007 114.294 6.48316 113.419 6.65829M116.061 6.24879C116.101 6.24471 116.14 6.24073 116.18 6.23686C117.353 6.12231 116.971 6.39422 116.309 6.69126M114.421 6.94431C113.829 7.11653 113.207 7.24434 112.622 7.35964M114.421 6.94431C114.442 6.94993 114.462 6.95555 114.482 6.96116M114.421 6.94431C114.086 6.85102 113.752 6.75574 113.419 6.65829M112.622 7.35964C112.204 7.44227 111.805 7.51846 111.45 7.59998C109.626 8.01969 107.803 8.23566 105.966 8.51507M112.622 7.35964C113.083 7.42555 113.544 7.49188 114.005 7.55892M112.622 7.35964C112.152 7.29233 111.681 7.22545 111.21 7.15868M105.966 8.51507C105.802 8.53993 105.638 8.56529 105.475 8.59134C105.092 8.65229 105.362 8.63367 105.482 8.61199C105.643 8.58257 105.805 8.55003 105.966 8.51507ZM105.966 8.51507C106.747 8.34525 107.519 8.11846 108.29 7.91666C109.259 7.66333 110.232 7.40124 111.21 7.15868M111.21 7.15868C111.943 6.97696 112.679 6.8062 113.419 6.65829M116.309 6.69126C115.941 6.85629 115.486 7.02907 115.164 7.14766M116.309 6.69126C118.502 6.57833 120.873 7.02385 122.899 7.48983C124.431 7.842 125.946 8.30429 127.419 8.87822M116.309 6.69126C115.819 6.71648 115.338 6.76955 114.872 6.85646C114.709 6.88691 114.58 6.9221 114.482 6.96116M115.164 7.14766C114.988 7.21236 114.851 7.26093 114.789 7.28329C114.641 7.33693 114.492 7.38982 114.343 7.44197M115.164 7.14766C117.821 7.86327 120.513 8.46231 123.188 9.03194C123.465 9.09082 123.744 9.15256 124.025 9.21569M115.164 7.14766C114.936 7.08636 114.709 7.02421 114.482 6.96116M114.343 7.44197C114.23 7.48138 114.118 7.52036 114.005 7.55892M114.343 7.44197C114.165 7.26059 114.158 7.08988 114.482 6.96116M114.343 7.44197C114.409 7.50924 114.499 7.57797 114.604 7.64657M114.005 7.55892C112.795 7.97205 111.568 8.33718 110.329 8.66014M114.005 7.55892C114.205 7.58799 114.404 7.6172 114.604 7.64657M110.329 8.66014C110.393 8.66016 110.457 8.66018 110.521 8.66018C110.737 8.66018 111.334 8.57601 111.168 8.71526C110.442 9.32557 109.198 9.71115 108.352 10.0853C107.761 10.3468 107.165 10.5807 106.562 10.7891M106.562 10.7891C108.804 10.4222 111.229 10.7201 113.447 10.9665C115.515 11.1962 117.689 11.3155 119.732 11.7031C120.703 11.8871 118.189 12.7658 118.053 12.8115C117.759 12.9102 117.462 13.0025 117.164 13.0885M117.164 13.0885C118.338 13.0459 119.512 13.0411 120.669 13.0249C122.87 12.994 125.683 12.7083 127.815 13.4655C128.754 13.7991 125.836 13.7251 124.841 13.7684C124.127 13.7994 123.397 13.8483 122.669 13.9305M122.669 13.9305C122.299 13.9721 121.93 14.0224 121.563 14.0832M122.669 13.9305C125.649 14.0802 128.631 14.1962 131.615 14.2297C132.1 14.2351 132.586 14.2327 133.072 14.2328M121.563 14.0832C120.71 14.2246 119.87 14.4233 119.071 14.7047C118.91 14.7617 118.081 15.0212 118.59 15.3105C119.582 15.8754 121.104 15.9825 122.183 16.1367C127.195 16.8526 132.266 17.1962 137.301 17.7063C138.412 17.8189 139.521 17.9647 140.633 18.0574C140.743 18.0666 140.854 18.0813 140.964 18.0781C141.151 18.0726 140.597 18.005 140.413 17.9679C136.927 17.2638 133.503 16.277 130.018 15.5584C127.218 14.981 124.397 14.4695 121.563 14.0832ZM133.072 14.2328C133.32 14.2329 133.569 14.2337 133.818 14.2366C133.905 14.2376 134.14 14.2426 134.073 14.2985C133.888 14.4524 133.448 14.3544 133.072 14.2328ZM133.072 14.2328C132.83 14.1548 132.615 14.0671 132.51 14.03C130.371 13.2744 128.331 12.279 126.176 11.5516C125.908 11.4613 122.438 10.3617 121.033 9.89036M121.033 9.89036C120.67 9.76866 120.445 9.68884 120.448 9.67908C120.524 9.46072 122.34 9.53462 122.348 9.5345C123.254 9.52267 124.162 9.51987 125.068 9.54646M121.033 9.89036C120.852 9.89343 120.671 9.89641 120.49 9.89938C120.08 9.9061 119.67 9.91527 119.261 9.92644M121.033 9.89036C122.344 9.86809 123.654 9.84077 124.964 9.77546C125.165 9.76548 125.397 9.76576 125.637 9.76273M125.068 9.54646C125.237 9.55144 125.407 9.55745 125.576 9.56463M125.068 9.54646C125.258 9.61748 125.448 9.68956 125.637 9.76273M125.068 9.54646C124.84 9.46164 124.612 9.37834 124.384 9.2965M125.576 9.56463C125.703 9.56998 125.829 9.57599 125.956 9.58269C126.244 9.59799 126.53 9.62276 126.815 9.6538M125.576 9.56463C125.834 9.62143 126.093 9.67724 126.352 9.73099M125.576 9.56463C125.176 9.47636 124.778 9.38568 124.384 9.2965M126.815 9.6538C127.543 9.73327 128.263 9.8538 128.985 9.96153M126.815 9.6538C126.673 9.69084 126.516 9.71502 126.352 9.73099M126.815 9.6538C126.818 9.65305 126.82 9.6523 126.823 9.65154C127.213 9.54751 126.025 9.5315 125.625 9.47254C125.175 9.4061 124.726 9.33405 124.277 9.2585M128.985 9.96153C129.024 9.96724 129.062 9.97291 129.1 9.97854M128.985 9.96153C128.979 9.95723 128.973 9.95292 128.967 9.94862M128.985 9.96153C129.1 10.0403 129.214 10.1192 129.328 10.1981M129.1 9.97854C129.462 10.0317 129.825 10.0809 130.19 10.1194M129.1 9.97854C129.056 9.96858 129.011 9.9586 128.967 9.94862M129.1 9.97854C129.514 10.071 129.927 10.1631 130.341 10.2546M130.19 10.1194C130.213 10.1219 130.236 10.1242 130.259 10.1266C130.286 10.1294 130.385 10.1419 130.494 10.1581M130.19 10.1194C130.278 10.1647 130.367 10.2103 130.455 10.2564M130.19 10.1194C129.289 9.65959 128.363 9.24599 127.419 8.87822M130.494 10.1581C130.598 10.1736 130.711 10.1924 130.78 10.2095M130.494 10.1581C130.352 10.0089 130.206 9.86121 130.058 9.71651M130.494 10.1581C130.526 10.1911 130.557 10.2242 130.589 10.2574M130.78 10.2095C130.848 10.2263 130.874 10.2415 130.807 10.25M130.78 10.2095C130.789 10.2231 130.798 10.2366 130.807 10.25M130.78 10.2095C130.73 10.1354 130.681 10.0604 130.632 9.98484M130.807 10.25C130.771 10.2547 130.708 10.2574 130.61 10.2574C130.603 10.2574 130.596 10.2574 130.589 10.2574M130.807 10.25C130.836 10.2924 130.864 10.3345 130.893 10.3763M130.589 10.2574C130.544 10.2573 130.5 10.257 130.455 10.2564M130.589 10.2574C130.609 10.2792 130.63 10.3011 130.65 10.3229M130.455 10.2564C130.417 10.256 130.379 10.2554 130.341 10.2546M130.455 10.2564C130.481 10.2698 130.506 10.2833 130.532 10.2968M130.341 10.2546C130.005 10.2476 129.667 10.228 129.328 10.1981M130.341 10.2546C130.404 10.2686 130.468 10.2827 130.532 10.2968M129.328 10.1981C128.34 10.1109 127.341 9.93583 126.352 9.73099M129.328 10.1981C130.206 10.8042 131.08 11.4152 131.934 12.053M126.352 9.73099C126.121 9.75353 125.875 9.75975 125.637 9.76273M124.384 9.2965C124.264 9.26939 124.145 9.24242 124.025 9.21569M124.384 9.2965C124.348 9.2838 124.313 9.27113 124.277 9.2585M124.025 9.21569C124.109 9.23008 124.193 9.24435 124.277 9.2585M124.025 9.21569C122.926 9.02738 121.829 8.82039 120.731 8.62576C118.693 8.26487 116.65 7.94734 114.604 7.64657M110.167 5.62399C109.822 5.50434 109.478 5.38165 109.135 5.2557M110.167 5.62399C111.41 5.62997 112.653 5.60613 113.879 5.50649M110.167 5.62399C109.889 5.62265 109.612 5.61983 109.334 5.61603M109.135 5.2557C109.12 5.25001 109.104 5.24432 109.089 5.23862C108.543 5.03745 107.682 4.78625 107.203 4.37806C107.105 4.29492 107.419 4.2107 107.547 4.20595C108.907 4.15557 110.247 4.20678 111.582 4.40203M109.135 5.2557C110.033 5.30383 110.931 5.34656 111.829 5.38319C112.401 5.40651 112.973 5.4232 113.545 5.43175M111.582 4.40203C111.303 4.43987 111.027 4.4865 110.755 4.54329C109.855 4.73109 111.527 4.96535 111.664 4.99766C112.289 5.14517 112.916 5.29058 113.545 5.43175M111.582 4.40203C113.741 4.10924 116.078 4.34332 118.204 4.47445C121.224 4.66067 124.223 5.1284 127.25 5.19043C127.379 5.19306 129.479 5.13622 128.503 5.4658C126.428 6.16632 124.115 5.69954 122.045 5.21796C122.01 5.20963 121.814 5.15144 121.623 5.09325M113.879 5.50649C113.768 5.48172 113.656 5.4568 113.545 5.43175M113.879 5.50649C114.031 5.49412 114.183 5.48059 114.335 5.4658C114.369 5.46245 114.819 5.43827 114.404 5.43827C114.117 5.43827 113.831 5.43603 113.545 5.43175M121.623 5.09325C121.347 5.0094 121.081 4.92555 121.316 4.99078C121.419 5.01941 121.521 5.05395 121.623 5.09325ZM121.623 5.09325C122.187 5.31163 122.725 5.6767 123.216 5.98902C124.516 6.81709 125.77 7.71685 127.03 8.6051C127.159 8.69644 127.289 8.78745 127.419 8.87822M127.419 8.87822C127.933 9.23737 128.45 9.59267 128.967 9.94862M128.967 9.94862C126.483 9.39237 124.003 8.81912 121.522 8.24023C121.078 8.13648 120.611 8.04429 120.143 7.94606M131.934 12.053C131.966 12.0763 131.997 12.0997 132.028 12.123C132.155 12.2184 132.308 12.3119 132.372 12.3821M131.934 12.053C132.025 12.2029 132.117 12.3525 132.21 12.5011M131.934 12.053C131.745 11.7406 131.558 11.4269 131.369 11.1183M132.372 12.3821C132.385 12.3965 132.395 12.4099 132.399 12.4222M132.372 12.3821C132.116 12.0076 131.835 11.6509 131.525 11.2969C131.474 11.2378 131.422 11.1782 131.369 11.1183M132.372 12.3821C132.381 12.3954 132.39 12.4088 132.399 12.4222M132.399 12.4222C132.417 12.4674 132.37 12.4967 132.21 12.5011M132.399 12.4222C132.612 12.7359 132.806 13.0624 132.985 13.4104C133.035 13.5092 133.549 14.373 133.129 13.8373C132.799 13.4153 132.498 12.963 132.21 12.5011M132.21 12.5011C132.196 12.5015 132.181 12.5017 132.166 12.5017C131.033 12.5017 129.896 11.6304 128.916 11.1661C127.841 10.6567 126.747 10.191 125.637 9.76273M124.277 9.2585C122.915 8.77341 121.534 8.33977 120.143 7.94606M120.143 7.94606C120.1 7.93393 120.057 7.92183 120.015 7.90978C119.475 7.75803 117.85 7.33107 118.383 7.5036C118.945 7.68533 119.545 7.82062 120.143 7.94606ZM130.532 10.2968C130.571 10.3055 130.611 10.3142 130.65 10.3229M130.532 10.2968C130.594 10.3297 130.657 10.3628 130.719 10.3962M130.65 10.3229C130.731 10.3408 130.812 10.3585 130.893 10.3763M130.65 10.3229C130.673 10.3473 130.696 10.3718 130.719 10.3962M130.893 10.3763C131.094 10.4206 131.296 10.4648 131.497 10.5089M130.893 10.3763C130.934 10.4372 130.975 10.4974 131.014 10.557M131.497 10.5089C131.777 10.57 132.056 10.6308 132.336 10.6913M131.497 10.5089C131.42 10.4271 131.343 10.3455 131.265 10.264M131.497 10.5089C131.726 10.7514 131.955 10.9951 132.184 11.2393M132.336 10.6913C134.641 11.1906 136.952 11.6708 139.27 12.123C140.478 12.3587 144.085 12.8145 142.864 12.9698C141.347 13.1629 139.482 12.4451 138.004 12.185C136.042 11.84 134.175 11.3785 132.336 10.6913ZM132.336 10.6913C131.978 10.5577 131.621 10.4155 131.265 10.264M131.265 10.264C131.175 10.2257 131.085 10.1867 130.995 10.1472C130.874 10.0939 130.753 10.0398 130.632 9.98484M131.265 10.264C131.185 10.179 131.104 10.0942 131.023 10.0095C130.764 9.73865 130.091 8.86753 130.224 9.21782C130.323 9.47653 130.471 9.73415 130.632 9.98484M130.632 9.98484C130.44 9.89729 130.249 9.80775 130.058 9.71651M130.058 9.71651C129.427 9.41415 128.804 9.09307 128.186 8.76345C127.857 8.58748 127.283 8.35819 127.002 8.06812C126.835 7.89486 128.251 8.28204 128.352 8.3435C128.954 8.71324 129.524 9.19522 130.058 9.71651ZM130.719 10.3962C130.943 10.6374 131.16 10.8803 131.369 11.1183M130.719 10.3962C130.818 10.4492 130.916 10.5028 131.014 10.557M131.369 11.1183C131.291 10.991 131.212 10.8645 131.133 10.7393C131.095 10.6794 131.055 10.6186 131.014 10.557M131.014 10.557C131.41 10.7751 131.8 11.0026 132.184 11.2393M132.184 11.2393C133.924 13.0979 135.663 14.987 137.618 16.6048C137.736 16.7026 139.514 18.056 138.72 17.0317C136.913 14.7031 134.676 12.7756 132.184 11.2393ZM114.604 7.64657C115.151 8.00311 116.118 8.3561 116.373 8.48118C117.338 8.95565 118.297 9.44529 119.261 9.92644M119.261 9.92644C120.369 10.4799 121.483 11.0222 122.617 11.5172C123.076 11.7176 125.107 12.2356 123.409 12.1024C121.136 11.9241 118.876 11.4502 116.669 10.8907C115.887 10.6926 115.113 10.468 114.335 10.2574C114.285 10.244 113.661 10.1611 114.087 10.1403C115.813 10.0561 117.535 9.97353 119.261 9.92644ZM109.334 5.61603C108.362 5.60272 107.391 5.57742 106.432 5.56219C105.468 5.54689 108.381 5.12043 109.334 5.61603ZM109.334 5.61603C109.376 5.6376 109.413 5.66093 109.447 5.68611" stroke="#1D00AB" stroke-width="3" stroke-linecap="round"/>
</svg>
